<svg width="1920" height="255" viewBox="0 0 1920 255" fill="none" xmlns="http://www.w3.org/2000/svg">
<path d="M372.577 111.61C110.077 110.32 -20.9233 25.94 -89.9233 56.9051C-158.923 87.8702 -154.423 111.61 -89.9233 177.927C-25.4233 244.244 80.5767 243.47 372.577 243.47C664.577 243.47 510.576 177.927 835.076 177.927C1159.58 177.927 943.076 243.47 1210.08 252.759C1477.08 262.049 1620.08 243.47 1794.58 177.927C1969.08 112.384 1953.08 82.9674 1794.58 17.6827C1636.08 -47.602 1472.08 97.1597 1198.58 104.385C925.076 111.61 1076.58 17.6827 835.076 17.6827C593.576 17.6827 635.077 112.9 372.577 111.61Z" fill="url(#paint0_linear_104_116)"/>
<ellipse cx="233.077" cy="101.288" rx="136.5" ry="56.5113" fill="url(#paint1_angular_104_116)"/>
<ellipse cx="136.5" cy="56.5113" rx="136.5" ry="56.5113" transform="matrix(-1 0 0 1 1454.58 30.3268)" fill="url(#paint2_angular_104_116)"/>
<defs>
<linearGradient id="paint0_linear_104_116" x1="2167.58" y1="105.675" x2="-195.773" y2="188.919" gradientUnits="userSpaceOnUse">
<stop stop-color="#1B4DF5"/>
<stop offset="0.348958" stop-color="#1B4DF5" stop-opacity="0.651042"/>
<stop offset="0.463542" stop-color="#7D85DA" stop-opacity="0.536458"/>
<stop offset="0.463642" stop-color="#1B4DF5" stop-opacity="0.520833"/>
<stop offset="0.619792" stop-color="#1B4DF5" stop-opacity="0.380208"/>
<stop offset="0.760417" stop-color="#1B4DF5" stop-opacity="0.609446"/>
<stop offset="1" stop-color="#9DAFEE"/>
</linearGradient>
<radialGradient id="paint1_angular_104_116" cx="0" cy="0" r="1" gradientUnits="userSpaceOnUse" gradientTransform="translate(233.077 101.288) rotate(90) scale(56.5113 136.5)">
<stop offset="0.409227" stop-color="#96A4ED"/>
<stop offset="0.625395" stop-color="#3772FF" stop-opacity="0.634093"/>
<stop offset="1" stop-color="#3772FF" stop-opacity="0"/>
</radialGradient>
<radialGradient id="paint2_angular_104_116" cx="0" cy="0" r="1" gradientUnits="userSpaceOnUse" gradientTransform="translate(136.5 56.5113) rotate(90) scale(56.5113 136.5)">
<stop offset="0.409227" stop-color="#96A4ED"/>
<stop offset="0.625395" stop-color="#3772FF" stop-opacity="0.634093"/>
<stop offset="1" stop-color="#3772FF" stop-opacity="0"/>
</radialGradient>
</defs>
</svg>
