<svg width="1260" height="1131" viewBox="0 0 1260 1131" fill="none" xmlns="http://www.w3.org/2000/svg">
<g opacity="0.5" clip-path="url(#clip0_104_149)">
<path d="M1108.34 468.071C1104.55 435.424 1089.29 279.631 944.26 198.164C872.508 162.29 802.577 101.575 780.462 63.4209C760.615 29.2749 739.544 -2.59155 729.113 -17.9888C727.836 -19.7795 726.772 -21.4265 725.778 -22.7161C725.778 -22.7161 716.146 -24.5437 698.94 -25.2623C643.401 -28.5065 509.845 -21.885 390.199 88.1151C390.199 88.1151 196.872 246.271 194.079 648.389C194.079 648.389 198.924 784.144 245 812.979C284.524 837.716 326.223 821.406 403.276 769.624C480.33 717.842 588.877 631.712 629.748 625.395C629.748 625.395 644.175 641.31 656.529 691.202C668.669 740.951 726.499 792.901 773.668 799.821C821.408 806.815 898.941 776.455 970.355 724.291C1041.63 672.34 1098.53 607.616 1108.34 468.071Z" fill="url(#paint0_radial_104_149)"/>
<mask id="mask0_104_149" style="mask-type:alpha" maskUnits="userSpaceOnUse" x="630" y="470" width="479" height="331">
<path d="M1055.62 639.557C1056.48 638.276 1057.34 636.994 1058.2 635.713C1058.92 634.645 1059.64 633.577 1060.36 632.509C1061.08 631.442 1061.65 630.587 1062.16 629.376C1063.17 627.881 1064.1 626.029 1065.11 624.534C1065.68 623.679 1066.04 622.681 1066.62 621.827C1066.76 621.613 1067.05 621.186 1067.19 620.973C1067.77 620.118 1068.27 618.907 1068.85 618.053C1069.64 616.414 1070.5 615.132 1071.3 613.494C1071.8 612.282 1072.66 611.001 1073.17 609.789C1074.54 607.296 1075.69 604.659 1076.84 602.023C1078.28 598.959 1079.58 596.109 1080.81 592.901C1081.46 591.476 1081.96 590.264 1082.61 588.839C1083.26 587.414 1083.7 585.845 1084.34 584.42C1084.99 582.995 1085.43 581.426 1086.08 580.001C1086.73 578.575 1087.16 577.007 1087.6 575.438C1087.6 575.438 1087.74 575.224 1087.88 575.011C1088.32 573.442 1088.97 572.016 1089.4 570.448C1089.48 569.877 1089.76 569.45 1089.84 568.879C1090.27 567.31 1090.85 565.527 1091.29 563.958C1092.59 560.18 1093.53 556.471 1094.62 552.549C1095.13 550.409 1095.85 548.413 1096.36 546.273C1096.87 544.134 1097.24 542.207 1097.74 540.068C1098.25 537.928 1098.76 535.788 1099.13 533.862C1100.65 527.442 1101.75 520.736 1102.85 514.029C1103.15 511.745 1103.44 509.462 1104.1 507.108C1104.69 502.541 1105.42 497.761 1105.94 492.836C1106.24 490.553 1106.39 488.483 1106.69 486.199C1106.76 485.628 1106.9 485.415 1106.83 485.058C1106.99 482.988 1107.14 480.918 1107.5 478.991C1107.73 476.351 1108.1 473.496 1108.25 470.498C977.507 537.966 818.395 593.17 741.757 597.758C664.549 602.272 635.69 621.637 630.244 626.04C630.244 626.04 630.458 626.183 630.672 626.327C632.093 627.904 634.932 631.987 638.683 639.786C638.966 640.287 639.32 641.145 639.817 641.79C640.314 642.435 640.454 643.15 640.807 644.008C641.16 644.866 641.444 645.367 641.797 646.226C644.131 651.52 646.46 657.742 649.213 665.18C649.423 666.252 649.99 667.254 650.413 668.47C652.455 675.119 654.707 682.84 656.742 691.346C668.882 741.095 726.712 793.044 773.881 799.964C821.621 806.958 899.154 776.599 970.568 724.434C1002.66 700.728 1032.19 674.369 1055.62 639.557Z" fill="url(#paint1_linear_104_149)"/>
</mask>
<g mask="url(#mask0_104_149)">
<path d="M1055.62 639.557C1056.48 638.276 1057.34 636.994 1058.2 635.713C1058.92 634.645 1059.64 633.577 1060.36 632.509C1061.08 631.442 1061.65 630.587 1062.16 629.376C1063.17 627.881 1064.1 626.029 1065.11 624.534C1065.68 623.679 1066.04 622.681 1066.62 621.827C1066.76 621.613 1067.05 621.186 1067.19 620.973C1067.77 620.118 1068.27 618.907 1068.85 618.053C1069.64 616.414 1070.5 615.132 1071.3 613.494C1071.8 612.282 1072.66 611.001 1073.17 609.789C1074.54 607.296 1075.69 604.659 1076.84 602.023C1078.28 598.959 1079.58 596.109 1080.81 592.901C1081.46 591.476 1081.96 590.264 1082.61 588.839C1083.26 587.414 1083.7 585.845 1084.34 584.42C1084.99 582.995 1085.43 581.426 1086.08 580.001C1086.73 578.575 1087.16 577.007 1087.6 575.438C1087.6 575.438 1087.74 575.224 1087.88 575.011C1088.32 573.442 1088.97 572.016 1089.4 570.448C1089.48 569.877 1089.76 569.45 1089.84 568.879C1090.27 567.31 1090.85 565.527 1091.29 563.958C1092.59 560.18 1093.53 556.471 1094.62 552.549C1095.13 550.409 1095.85 548.413 1096.36 546.273C1096.87 544.134 1097.24 542.207 1097.74 540.068C1098.25 537.928 1098.76 535.788 1099.13 533.862C1100.65 527.442 1101.75 520.736 1102.85 514.029C1103.15 511.745 1103.44 509.462 1104.1 507.108C1104.69 502.541 1105.42 497.761 1105.94 492.836C1106.24 490.553 1106.39 488.483 1106.69 486.199C1106.76 485.628 1106.9 485.415 1106.83 485.058C1106.99 482.988 1107.14 480.918 1107.5 478.991C1107.73 476.351 1108.1 473.496 1108.25 470.498C977.507 537.966 820.678 593.465 744.806 602.912C670.005 612.149 635.834 621.423 630.244 626.04C630.244 626.04 630.458 626.183 630.672 626.327C632.093 627.904 634.932 631.987 638.683 639.786C638.966 640.287 639.32 641.145 639.817 641.79C640.314 642.435 640.454 643.15 640.807 644.008C641.16 644.866 641.444 645.367 641.797 646.226C644.131 651.52 646.46 657.742 649.213 665.18C649.423 666.252 649.99 667.254 650.413 668.47C652.455 675.119 654.707 682.84 656.742 691.346C668.882 741.095 726.712 793.044 773.881 799.964C821.621 806.958 899.154 776.599 970.568 724.434C1002.66 700.728 1032.19 674.369 1055.62 639.557Z" fill="url(#paint2_linear_104_149)"/>
</g>
<mask id="mask1_104_149" style="mask-type:alpha" maskUnits="userSpaceOnUse" x="194" y="271" width="438" height="554">
<path d="M194.078 648.389C194.078 648.389 198.924 784.144 245 812.979C284.524 837.716 326.222 821.406 403.276 769.624C480.329 717.842 588.877 631.712 629.748 625.395C629.748 625.395 629.748 625.395 630.031 625.896C632.466 624.122 637.571 332.471 549.59 284.744C425.988 218.009 195.799 413.416 194.078 648.389Z" fill="url(#paint3_linear_104_149)"/>
</mask>
<g mask="url(#mask1_104_149)">
<path d="M194.078 648.389C194.078 648.389 198.924 784.144 245 812.979C284.524 837.716 326.222 821.406 403.276 769.624C480.329 717.842 588.877 631.712 629.748 625.395C629.748 625.395 629.748 625.395 630.031 625.896C632.466 624.122 637.571 332.471 549.59 284.744C425.988 218.009 195.799 413.416 194.078 648.389Z" fill="url(#paint4_linear_104_149)"/>
</g>
</g>
<defs>
<radialGradient id="paint0_radial_104_149" cx="0" cy="0" r="1" gradientUnits="userSpaceOnUse" gradientTransform="translate(629.883 492.189) rotate(33.9393) scale(458.873 458.805)">
<stop stop-color="#3772FF"/>
<stop offset="0.239583" stop-color="#9EB9FA"/>
<stop offset="0.2887" stop-color="#99B6FB"/>
<stop offset="0.359375" stop-color="#CCCFD7"/>
<stop offset="0.4498" stop-color="#9EB7F2"/>
<stop offset="0.5794" stop-color="#5A83E7"/>
<stop offset="0.6924" stop-color="#7096F1"/>
<stop offset="0.7944" stop-color="#939DD3"/>
<stop offset="0.8887" stop-color="#3772FF"/>
<stop offset="0.9752" stop-color="#1C57E5"/>
<stop offset="1" stop-color="#3772FF"/>
</radialGradient>
<linearGradient id="paint1_linear_104_149" x1="883.202" y1="694.1" x2="871.303" y2="570.828" gradientUnits="userSpaceOnUse">
<stop stop-color="white"/>
<stop offset="1"/>
</linearGradient>
<linearGradient id="paint2_linear_104_149" x1="860.396" y1="657.427" x2="664.022" y2="702.143" gradientUnits="userSpaceOnUse">
<stop stop-color="#3772FF" stop-opacity="0"/>
<stop offset="0.1672" stop-color="#3772FF" stop-opacity="0.38"/>
<stop offset="0.5242" stop-color="#3772FF" stop-opacity="0.5242"/>
<stop offset="0.8145" stop-color="#4F6BFB" stop-opacity="0.8145"/>
<stop offset="0.8146" stop-color="#3772FF" stop-opacity="0.826042"/>
<stop offset="1" stop-color="#3772FF" stop-opacity="0.8"/>
</linearGradient>
<linearGradient id="paint3_linear_104_149" x1="591.815" y1="490.661" x2="247.148" y2="585.886" gradientUnits="userSpaceOnUse">
<stop/>
<stop offset="0.4203" stop-color="#888A8D"/>
<stop offset="0.822" stop-color="#DADBDD"/>
<stop offset="1" stop-color="white"/>
</linearGradient>
<linearGradient id="paint4_linear_104_149" x1="389.92" y1="525.422" x2="519.596" y2="798.315" gradientUnits="userSpaceOnUse">
<stop stop-color="#3772FF" stop-opacity="0.38"/>
<stop offset="0.2777" stop-color="#3772FF" stop-opacity="0"/>
<stop offset="0.6182" stop-color="#3772FF" stop-opacity="0"/>
</linearGradient>
<clipPath id="clip0_104_149">
<rect width="871" height="962" fill="white" transform="matrix(0.82963 0.558314 0.558314 -0.82963 0 648.104)"/>
</clipPath>
</defs>
</svg>
