<svg width="140" height="57" viewBox="0 0 140 57" fill="none" xmlns="http://www.w3.org/2000/svg">
<path d="M32.168 22.96L26.408 37H21.584L27.392 23.512H20.552V19.48H32.168V22.96ZM46.6505 20.08V23.824H42.1385V37H37.4345V23.824H32.9705V20.08H46.6505ZM47.6229 30.256C47.6229 28.864 47.8709 27.648 48.3669 26.608C48.8789 25.568 49.5669 24.768 50.4309 24.208C51.3109 23.648 52.2869 23.368 53.3589 23.368C54.2869 23.368 55.0869 23.552 55.7589 23.92C56.4309 24.288 56.9509 24.784 57.3189 25.408V23.536H62.0229V37H57.3189V35.128C56.9509 35.752 56.4229 36.248 55.7349 36.616C55.0629 36.984 54.2709 37.168 53.3589 37.168C52.2869 37.168 51.3109 36.888 50.4309 36.328C49.5669 35.768 48.8789 34.968 48.3669 33.928C47.8709 32.872 47.6229 31.648 47.6229 30.256ZM57.3189 30.256C57.3189 29.392 57.0789 28.712 56.5989 28.216C56.1349 27.72 55.5589 27.472 54.8709 27.472C54.1669 27.472 53.5829 27.72 53.1189 28.216C52.6549 28.696 52.4229 29.376 52.4229 30.256C52.4229 31.12 52.6549 31.808 53.1189 32.32C53.5829 32.816 54.1669 33.064 54.8709 33.064C55.5589 33.064 56.1349 32.816 56.5989 32.32C57.0789 31.824 57.3189 31.136 57.3189 30.256ZM70.4394 37.168C69.2234 37.168 68.1354 36.968 67.1754 36.568C66.2314 36.152 65.4794 35.592 64.9194 34.888C64.3754 34.168 64.0714 33.36 64.0074 32.464H68.5674C68.6314 32.896 68.8314 33.232 69.1674 33.472C69.5034 33.712 69.9194 33.832 70.4154 33.832C70.7994 33.832 71.1034 33.752 71.3274 33.592C71.5514 33.432 71.6634 33.224 71.6634 32.968C71.6634 32.632 71.4794 32.384 71.1114 32.224C70.7434 32.064 70.1354 31.888 69.2874 31.696C68.3274 31.504 67.5274 31.288 66.8874 31.048C66.2474 30.808 65.6874 30.416 65.2074 29.872C64.7434 29.328 64.5114 28.592 64.5114 27.664C64.5114 26.864 64.7274 26.144 65.1594 25.504C65.5914 24.848 66.2234 24.328 67.0554 23.944C67.9034 23.56 68.9194 23.368 70.1034 23.368C71.8634 23.368 73.2474 23.8 74.2554 24.664C75.2634 25.528 75.8474 26.664 76.0074 28.072H71.7594C71.6794 27.64 71.4874 27.312 71.1834 27.088C70.8954 26.848 70.5034 26.728 70.0074 26.728C69.6234 26.728 69.3274 26.8 69.1194 26.944C68.9274 27.088 68.8314 27.288 68.8314 27.544C68.8314 27.864 69.0154 28.112 69.3834 28.288C69.7514 28.448 70.3434 28.616 71.1594 28.792C72.1354 29 72.9434 29.232 73.5834 29.488C74.2394 29.744 74.8074 30.16 75.2874 30.736C75.7834 31.296 76.0314 32.064 76.0314 33.04C76.0314 33.824 75.7994 34.528 75.3354 35.152C74.8874 35.776 74.2394 36.272 73.3914 36.64C72.5594 36.992 71.5754 37.168 70.4394 37.168ZM86.768 37L83.048 31.48V37H78.344V19.24H83.048V28.816L86.768 23.536H92.408L87.104 30.304L92.504 37H86.768ZM98.5871 25.408C98.9551 24.768 99.4751 24.272 100.147 23.92C100.819 23.552 101.611 23.368 102.523 23.368C103.595 23.368 104.563 23.648 105.427 24.208C106.307 24.768 106.995 25.568 107.491 26.608C108.003 27.648 108.259 28.864 108.259 30.256C108.259 31.648 108.003 32.872 107.491 33.928C106.995 34.968 106.307 35.768 105.427 36.328C104.563 36.888 103.595 37.168 102.523 37.168C101.611 37.168 100.819 36.992 100.147 36.64C99.4751 36.272 98.9551 35.768 98.5871 35.128V37H93.8831V19.24H98.5871V25.408ZM103.483 30.256C103.483 29.376 103.243 28.696 102.763 28.216C102.299 27.72 101.723 27.472 101.035 27.472C100.347 27.472 99.7631 27.72 99.2831 28.216C98.8191 28.712 98.5871 29.392 98.5871 30.256C98.5871 31.136 98.8191 31.824 99.2831 32.32C99.7631 32.816 100.347 33.064 101.035 33.064C101.723 33.064 102.299 32.816 102.763 32.32C103.243 31.808 103.483 31.12 103.483 30.256ZM116.46 37.168C115.116 37.168 113.908 36.888 112.836 36.328C111.78 35.768 110.948 34.968 110.34 33.928C109.732 32.888 109.428 31.664 109.428 30.256C109.428 28.864 109.732 27.648 110.34 26.608C110.964 25.568 111.804 24.768 112.86 24.208C113.932 23.648 115.14 23.368 116.484 23.368C117.828 23.368 119.028 23.648 120.084 24.208C121.156 24.768 121.996 25.568 122.604 26.608C123.228 27.648 123.54 28.864 123.54 30.256C123.54 31.648 123.228 32.872 122.604 33.928C121.996 34.968 121.156 35.768 120.084 36.328C119.012 36.888 117.804 37.168 116.46 37.168ZM116.46 33.088C117.116 33.088 117.66 32.848 118.092 32.368C118.54 31.872 118.764 31.168 118.764 30.256C118.764 29.344 118.54 28.648 118.092 28.168C117.66 27.688 117.124 27.448 116.484 27.448C115.844 27.448 115.308 27.688 114.876 28.168C114.444 28.648 114.228 29.344 114.228 30.256C114.228 31.184 114.436 31.888 114.852 32.368C115.268 32.848 115.804 33.088 116.46 33.088ZM133.853 37L131.429 33.616L129.509 37H124.349L128.837 30.016L124.157 23.536H129.437L131.861 26.92L133.805 23.536H138.965L134.381 30.4L139.133 37H133.853Z" fill="white"/>
<mask id="path-2-inside-1_20_3" fill="white">
<path d="M48.6525 8.34745C44.6667 4.36166 39.5885 1.6473 34.0601 0.547619C28.5316 -0.552059 22.8012 0.0123366 17.5935 2.16944C12.3858 4.32653 7.93473 7.97945 4.80311 12.6663C1.67149 17.3531 -8.51128e-07 22.8632 0 28.5C8.51129e-07 34.1368 1.6715 39.647 4.80312 44.3338C7.93474 49.0206 12.3858 52.6735 17.5935 54.8306C22.8012 56.9877 28.5316 57.5521 34.0601 56.4524C39.5885 55.3527 44.6668 52.6383 48.6525 48.6525L40.063 40.063C37.7761 42.3499 34.8623 43.9074 31.6902 44.5383C28.5181 45.1693 25.2302 44.8455 22.2422 43.6078C19.2541 42.3701 16.7002 40.2742 14.9034 37.585C13.1065 34.8958 12.1474 31.7342 12.1474 28.5C12.1474 25.2658 13.1065 22.1042 14.9033 19.415C16.7002 16.7258 19.2541 14.6299 22.2421 13.3922C25.2302 12.1545 28.5181 11.8307 31.6902 12.4617C34.8623 13.0926 37.7761 14.6501 40.063 16.937L48.6525 8.34745Z"/>
</mask>
<path d="M48.6525 8.34745C44.6667 4.36166 39.5885 1.6473 34.0601 0.547619C28.5316 -0.552059 22.8012 0.0123366 17.5935 2.16944C12.3858 4.32653 7.93473 7.97945 4.80311 12.6663C1.67149 17.3531 -8.51128e-07 22.8632 0 28.5C8.51129e-07 34.1368 1.6715 39.647 4.80312 44.3338C7.93474 49.0206 12.3858 52.6735 17.5935 54.8306C22.8012 56.9877 28.5316 57.5521 34.0601 56.4524C39.5885 55.3527 44.6668 52.6383 48.6525 48.6525L40.063 40.063C37.7761 42.3499 34.8623 43.9074 31.6902 44.5383C28.5181 45.1693 25.2302 44.8455 22.2422 43.6078C19.2541 42.3701 16.7002 40.2742 14.9034 37.585C13.1065 34.8958 12.1474 31.7342 12.1474 28.5C12.1474 25.2658 13.1065 22.1042 14.9033 19.415C16.7002 16.7258 19.2541 14.6299 22.2421 13.3922C25.2302 12.1545 28.5181 11.8307 31.6902 12.4617C34.8623 13.0926 37.7761 14.6501 40.063 16.937L48.6525 8.34745Z" stroke="url(#paint0_linear_20_3)" stroke-width="80" mask="url(#path-2-inside-1_20_3)"/>
<defs>
<linearGradient id="paint0_linear_20_3" x1="0" y1="29" x2="79" y2="29" gradientUnits="userSpaceOnUse">
<stop stop-color="#3772FF"/>
<stop offset="1" stop-opacity="0"/>
</linearGradient>
</defs>
</svg>
